<svg xmlns="http://www.w3.org/2000/svg" xmlns:xlink="http://www.w3.org/1999/xlink" version="1.1" viewBox="182.7 -1.74 143.36 25.48">
<g id="surface1">
<path style="fill:none;stroke-width:5;stroke-linecap:butt;stroke-linejoin:miter;stroke:rgb(100%,97.647059%,93.725491%);stroke-opacity:1;stroke-miterlimit:4;" d="M 49.996404 0 C 49.996404 -27.607437 27.623701 -49.990814 0.00143017 -49.990814 C -27.620841 -49.990814 -49.993544 -27.607437 -49.993544 0 C -49.993544 27.607437 -27.620841 49.990814 0.00143017 49.990814 C 27.623701 49.990814 49.996404 27.607437 49.996404 0 Z M 49.996404 0 " transform="matrix(0.20463,0,0,0.204881,195.429395,11)"/>
<path style=" stroke:none;fill-rule:nonzero;fill:rgb(20.784314%,30.588236%,67.843139%);fill-opacity:1;" d="M 203.507812 8.09375 L 208.4375 9.890625 L 204.625 20.367188 L 199.695312 18.570312 Z M 203.507812 8.09375 "/>
<path style=" stroke:none;fill-rule:nonzero;fill:rgb(100%,97.647059%,93.725491%);fill-opacity:1;" d="M 203.820312 16.464844 C 203.820312 16.042969 203.480469 15.699219 203.054688 15.699219 C 202.632812 15.699219 202.289062 16.042969 202.289062 16.464844 C 202.289062 16.890625 202.632812 17.234375 203.054688 17.234375 C 203.480469 17.234375 203.820312 16.890625 203.820312 16.464844 Z M 203.820312 16.464844 "/>
<path style=" stroke:none;fill-rule:nonzero;fill:rgb(100%,97.647059%,93.725491%);fill-opacity:1;" d="M 205.351562 12.777344 C 205.351562 12.355469 205.007812 12.011719 204.585938 12.011719 C 204.164062 12.011719 203.820312 12.355469 203.820312 12.777344 C 203.820312 13.199219 204.164062 13.542969 204.585938 13.542969 C 205.007812 13.542969 205.351562 13.199219 205.351562 12.777344 Z M 205.351562 12.777344 "/>
<path style=" stroke:none;fill-rule:nonzero;fill:rgb(100%,97.647059%,93.725491%);fill-opacity:1;" d="M 217.390625 16.542969 C 216.414062 16.542969 215.550781 16.335938 214.804688 15.917969 C 214.058594 15.5 213.476562 14.921875 213.054688 14.1875 C 212.628906 13.453125 212.417969 12.609375 212.417969 11.65625 C 212.417969 10.691406 212.617188 9.839844 213.019531 9.105469 C 213.417969 8.367188 213.96875 7.789062 214.671875 7.371094 C 215.378906 6.953125 216.195312 6.746094 217.125 6.746094 C 218.03125 6.746094 218.8125 6.949219 219.46875 7.355469 C 220.128906 7.761719 220.632812 8.320312 220.988281 9.03125 C 221.339844 9.742188 221.515625 10.566406 221.515625 11.496094 C 221.515625 11.695312 221.449219 11.863281 221.3125 11.996094 C 221.175781 12.132812 221 12.203125 220.773438 12.203125 L 213.527344 12.203125 L 213.527344 10.894531 L 220.792969 10.894531 L 220.070312 11.40625 C 220.058594 10.78125 219.933594 10.222656 219.699219 9.730469 C 219.464844 9.238281 219.128906 8.847656 218.695312 8.566406 C 218.257812 8.285156 217.734375 8.140625 217.125 8.140625 C 216.453125 8.140625 215.875 8.296875 215.390625 8.601562 C 214.898438 8.90625 214.527344 9.324219 214.269531 9.855469 C 214.011719 10.382812 213.882812 10.984375 213.882812 11.65625 C 213.882812 12.324219 214.03125 12.921875 214.332031 13.445312 C 214.632812 13.96875 215.042969 14.382812 215.566406 14.6875 C 216.089844 14.996094 216.695312 15.148438 217.390625 15.148438 C 217.765625 15.148438 218.15625 15.078125 218.5625 14.9375 C 218.96875 14.796875 219.289062 14.628906 219.523438 14.441406 C 219.6875 14.3125 219.863281 14.246094 220.050781 14.238281 C 220.238281 14.234375 220.402344 14.289062 220.546875 14.40625 C 220.722656 14.574219 220.816406 14.75 220.824219 14.945312 C 220.839844 15.140625 220.757812 15.308594 220.582031 15.449219 C 220.179688 15.765625 219.683594 16.027344 219.089844 16.234375 C 218.496094 16.441406 217.929688 16.542969 217.390625 16.542969 "/>
<path style=" stroke:none;fill-rule:nonzero;fill:rgb(100%,97.647059%,93.725491%);fill-opacity:1;" d="M 227.792969 16.542969 C 226.863281 16.542969 226.035156 16.328125 225.304688 15.898438 C 224.574219 15.46875 224.003906 14.886719 223.585938 14.152344 C 223.167969 13.417969 222.960938 12.585938 222.960938 11.65625 C 222.960938 10.703125 223.164062 9.855469 223.566406 9.113281 C 223.972656 8.371094 224.527344 7.789062 225.234375 7.371094 C 225.9375 6.953125 226.757812 6.746094 227.6875 6.746094 C 228.378906 6.746094 229.019531 6.882812 229.609375 7.152344 C 230.195312 7.421875 230.71875 7.828125 231.175781 8.371094 C 231.328125 8.535156 231.382812 8.710938 231.34375 8.898438 C 231.300781 9.089844 231.179688 9.253906 230.980469 9.394531 C 230.839844 9.5 230.675781 9.535156 230.488281 9.5 C 230.300781 9.464844 230.136719 9.367188 229.992188 9.203125 C 229.371094 8.53125 228.601562 8.195312 227.6875 8.195312 C 227.0625 8.195312 226.511719 8.339844 226.035156 8.636719 C 225.558594 8.929688 225.191406 9.332031 224.925781 9.84375 C 224.660156 10.355469 224.527344 10.960938 224.527344 11.65625 C 224.527344 12.3125 224.667969 12.902344 224.945312 13.421875 C 225.21875 13.9375 225.605469 14.34375 226.101562 14.644531 C 226.59375 14.945312 227.15625 15.09375 227.792969 15.09375 C 228.226562 15.09375 228.613281 15.042969 228.953125 14.9375 C 229.292969 14.832031 229.601562 14.660156 229.871094 14.425781 C 230.035156 14.285156 230.210938 14.207031 230.390625 14.195312 C 230.574219 14.183594 230.734375 14.234375 230.875 14.355469 C 231.050781 14.507812 231.152344 14.679688 231.175781 14.867188 C 231.199219 15.054688 231.136719 15.21875 230.980469 15.363281 C 230.136719 16.148438 229.070312 16.542969 227.792969 16.542969 "/>
<path style=" stroke:none;fill-rule:nonzero;fill:rgb(100%,97.647059%,93.725491%);fill-opacity:1;" d="M 238.386719 16.542969 C 237.445312 16.542969 236.609375 16.335938 235.875 15.917969 C 235.140625 15.5 234.5625 14.921875 234.144531 14.1875 C 233.726562 13.453125 233.519531 12.609375 233.519531 11.65625 C 233.519531 10.691406 233.726562 9.839844 234.144531 9.105469 C 234.5625 8.367188 235.140625 7.789062 235.875 7.371094 C 236.609375 6.953125 237.445312 6.746094 238.386719 6.746094 C 239.328125 6.746094 240.164062 6.953125 240.898438 7.371094 C 241.632812 7.789062 242.207031 8.367188 242.625 9.105469 C 243.042969 9.839844 243.257812 10.691406 243.269531 11.65625 C 243.269531 12.609375 243.058594 13.453125 242.636719 14.1875 C 242.210938 14.921875 241.636719 15.5 240.910156 15.917969 C 240.179688 16.335938 239.339844 16.542969 238.386719 16.542969 M 238.386719 15.09375 C 239.03125 15.09375 239.601562 14.949219 240.097656 14.65625 C 240.589844 14.359375 240.976562 13.953125 241.261719 13.4375 C 241.542969 12.917969 241.683594 12.324219 241.683594 11.65625 C 241.683594 10.984375 241.542969 10.386719 241.261719 9.863281 C 240.976562 9.339844 240.589844 8.929688 240.097656 8.636719 C 239.601562 8.339844 239.03125 8.195312 238.386719 8.195312 C 237.75 8.195312 237.183594 8.339844 236.683594 8.636719 C 236.1875 8.929688 235.796875 9.339844 235.511719 9.863281 C 235.230469 10.386719 235.089844 10.984375 235.089844 11.65625 C 235.089844 12.324219 235.230469 12.917969 235.511719 13.4375 C 235.796875 13.953125 236.1875 14.359375 236.683594 14.65625 C 237.183594 14.949219 237.75 15.09375 238.386719 15.09375 "/>
<path style=" stroke:none;fill-rule:nonzero;fill:rgb(100%,97.647059%,93.725491%);fill-opacity:1;" d="M 243.425781 20.601562 C 243.191406 20.601562 243 20.527344 242.847656 20.371094 C 242.695312 20.222656 242.617188 20.027344 242.617188 19.792969 C 242.617188 19.546875 242.695312 19.34375 242.847656 19.191406 C 243 19.039062 243.191406 18.960938 243.425781 18.960938 C 243.921875 18.960938 244.355469 18.851562 244.734375 18.636719 C 245.109375 18.417969 245.410156 18.121094 245.632812 17.742188 C 245.855469 17.367188 245.96875 16.9375 245.96875 16.453125 L 245.96875 7.628906 C 245.96875 7.382812 246.039062 7.1875 246.1875 7.039062 C 246.332031 6.890625 246.53125 6.816406 246.777344 6.816406 C 247.011719 6.816406 247.207031 6.890625 247.359375 7.039062 C 247.511719 7.1875 247.589844 7.382812 247.589844 7.628906 L 247.589844 16.453125 C 247.589844 17.253906 247.410156 17.96875 247.050781 18.589844 C 246.691406 19.214844 246.203125 19.707031 245.578125 20.0625 C 244.957031 20.421875 244.238281 20.601562 243.425781 20.601562 M 246.757812 5.140625 C 246.464844 5.140625 246.214844 5.035156 246.003906 4.820312 C 245.789062 4.609375 245.683594 4.351562 245.683594 4.046875 C 245.683594 3.738281 245.792969 3.484375 246.011719 3.28125 C 246.230469 3.074219 246.484375 2.96875 246.777344 2.96875 C 247.058594 2.96875 247.308594 3.074219 247.527344 3.28125 C 247.742188 3.484375 247.851562 3.738281 247.851562 4.046875 C 247.851562 4.351562 247.746094 4.609375 247.535156 4.820312 C 247.324219 5.035156 247.066406 5.140625 246.757812 5.140625 "/>
<path style=" stroke:none;fill-rule:nonzero;fill:rgb(100%,97.647059%,93.725491%);fill-opacity:1;" d="M 254.640625 16.542969 C 253.703125 16.542969 252.863281 16.335938 252.128906 15.917969 C 251.394531 15.5 250.816406 14.921875 250.398438 14.1875 C 249.984375 13.453125 249.773438 12.609375 249.773438 11.65625 C 249.773438 10.691406 249.984375 9.839844 250.398438 9.105469 C 250.816406 8.367188 251.394531 7.789062 252.128906 7.371094 C 252.863281 6.953125 253.703125 6.746094 254.640625 6.746094 C 255.582031 6.746094 256.417969 6.953125 257.152344 7.371094 C 257.886719 7.789062 258.464844 8.367188 258.878906 9.105469 C 259.296875 9.839844 259.511719 10.691406 259.523438 11.65625 C 259.523438 12.609375 259.3125 13.453125 258.890625 14.1875 C 258.464844 14.921875 257.890625 15.5 257.160156 15.917969 C 256.433594 16.335938 255.59375 16.542969 254.640625 16.542969 M 254.640625 15.09375 C 255.285156 15.09375 255.855469 14.949219 256.351562 14.65625 C 256.84375 14.359375 257.230469 13.953125 257.511719 13.4375 C 257.796875 12.917969 257.9375 12.324219 257.9375 11.65625 C 257.9375 10.984375 257.796875 10.386719 257.511719 9.863281 C 257.230469 9.339844 256.84375 8.929688 256.351562 8.636719 C 255.855469 8.339844 255.285156 8.195312 254.640625 8.195312 C 254.007812 8.195312 253.4375 8.339844 252.941406 8.636719 C 252.441406 8.929688 252.050781 9.339844 251.765625 9.863281 C 251.484375 10.386719 251.34375 10.984375 251.34375 11.65625 C 251.34375 12.324219 251.484375 12.917969 251.765625 13.4375 C 252.050781 13.953125 252.441406 14.359375 252.941406 14.65625 C 253.4375 14.949219 254.007812 15.09375 254.640625 15.09375 "/>
<path style=" stroke:none;fill-rule:nonzero;fill:rgb(100%,97.647059%,93.725491%);fill-opacity:1;" d="M 262.925781 10.46875 C 262.949219 9.753906 263.132812 9.109375 263.480469 8.546875 C 263.828125 7.980469 264.289062 7.535156 264.867188 7.207031 C 265.441406 6.878906 266.078125 6.710938 266.769531 6.710938 C 267.414062 6.710938 267.898438 6.8125 268.222656 7.011719 C 268.546875 7.210938 268.667969 7.464844 268.585938 7.773438 C 268.550781 7.949219 268.480469 8.074219 268.375 8.148438 C 268.269531 8.226562 268.144531 8.269531 268.003906 8.273438 C 267.863281 8.28125 267.710938 8.269531 267.542969 8.246094 C 266.828125 8.128906 266.1875 8.148438 265.621094 8.300781 C 265.058594 8.453125 264.613281 8.71875 264.285156 9.09375 C 263.957031 9.472656 263.789062 9.929688 263.789062 10.46875 Z M 262.976562 16.472656 C 262.730469 16.472656 262.539062 16.40625 262.398438 16.269531 C 262.257812 16.136719 262.1875 15.9375 262.1875 15.679688 L 262.1875 7.613281 C 262.1875 7.367188 262.257812 7.171875 262.398438 7.03125 C 262.539062 6.886719 262.730469 6.816406 262.976562 6.816406 C 263.25 6.816406 263.453125 6.886719 263.585938 7.019531 C 263.722656 7.15625 263.789062 7.355469 263.789062 7.613281 L 263.789062 15.679688 C 263.789062 15.925781 263.722656 16.121094 263.585938 16.261719 C 263.453125 16.402344 263.25 16.472656 262.976562 16.472656 "/>
<path style=" stroke:none;fill-rule:nonzero;fill:rgb(100%,97.647059%,93.725491%);fill-opacity:1;" d="M 278.757812 16.488281 C 278.523438 16.488281 278.328125 16.410156 278.167969 16.25 C 278.007812 16.09375 277.929688 15.902344 277.929688 15.679688 L 277.929688 11.230469 C 277.929688 10.535156 277.800781 9.96875 277.542969 9.527344 C 277.28125 9.085938 276.9375 8.753906 276.503906 8.539062 C 276.066406 8.320312 275.566406 8.210938 275.003906 8.210938 C 274.472656 8.210938 274 8.316406 273.574219 8.527344 C 273.152344 8.742188 272.8125 9.023438 272.558594 9.378906 C 272.308594 9.730469 272.179688 10.136719 272.179688 10.597656 L 271.125 10.597656 C 271.136719 9.855469 271.324219 9.191406 271.6875 8.609375 C 272.054688 8.027344 272.546875 7.566406 273.171875 7.230469 C 273.792969 6.898438 274.492188 6.730469 275.269531 6.730469 C 276.089844 6.730469 276.824219 6.902344 277.46875 7.25 C 278.117188 7.597656 278.628906 8.105469 279.003906 8.777344 C 279.378906 9.445312 279.566406 10.265625 279.566406 11.230469 L 279.566406 15.679688 C 279.566406 15.902344 279.488281 16.09375 279.332031 16.25 C 279.171875 16.410156 278.980469 16.488281 278.757812 16.488281 M 271.371094 16.488281 C 271.136719 16.488281 270.941406 16.414062 270.789062 16.261719 C 270.636719 16.109375 270.558594 15.914062 270.558594 15.679688 L 270.558594 7.628906 C 270.558594 7.382812 270.636719 7.1875 270.789062 7.039062 C 270.941406 6.890625 271.136719 6.816406 271.371094 6.816406 C 271.617188 6.816406 271.816406 6.890625 271.960938 7.039062 C 272.109375 7.1875 272.179688 7.382812 272.179688 7.628906 L 272.179688 15.679688 C 272.179688 15.914062 272.109375 16.109375 271.960938 16.261719 C 271.816406 16.414062 271.617188 16.488281 271.371094 16.488281 "/>
<path style=" stroke:none;fill-rule:nonzero;fill:rgb(100%,97.647059%,93.725491%);fill-opacity:1;" d="M 286.65625 16.542969 C 285.773438 16.542969 284.988281 16.332031 284.292969 15.910156 C 283.597656 15.484375 283.054688 14.902344 282.65625 14.160156 C 282.253906 13.417969 282.054688 12.585938 282.054688 11.65625 C 282.054688 10.714844 282.269531 9.875 282.699219 9.136719 C 283.128906 8.402344 283.707031 7.820312 284.441406 7.390625 C 285.175781 6.960938 286.003906 6.746094 286.921875 6.746094 C 287.851562 6.746094 288.675781 6.960938 289.40625 7.390625 C 290.132812 7.820312 290.714844 8.40625 291.140625 9.148438 C 291.570312 9.890625 291.792969 10.726562 291.804688 11.65625 L 291.167969 11.8125 C 291.167969 12.707031 290.96875 13.511719 290.570312 14.230469 C 290.167969 14.949219 289.632812 15.511719 288.957031 15.925781 C 288.28125 16.335938 287.515625 16.542969 286.65625 16.542969 M 286.921875 15.09375 C 287.554688 15.09375 288.117188 14.945312 288.613281 14.644531 C 289.105469 14.34375 289.496094 13.933594 289.785156 13.410156 C 290.074219 12.886719 290.21875 12.300781 290.21875 11.65625 C 290.21875 10.996094 290.074219 10.402344 289.785156 9.878906 C 289.496094 9.355469 289.105469 8.945312 288.613281 8.644531 C 288.117188 8.34375 287.554688 8.195312 286.921875 8.195312 C 286.308594 8.195312 285.75 8.34375 285.246094 8.644531 C 284.738281 8.945312 284.34375 9.355469 284.054688 9.878906 C 283.765625 10.402344 283.621094 10.996094 283.621094 11.65625 C 283.621094 12.300781 283.765625 12.886719 284.054688 13.410156 C 284.34375 13.933594 284.738281 14.34375 285.246094 14.644531 C 285.75 14.945312 286.308594 15.09375 286.921875 15.09375 M 290.976562 16.488281 C 290.742188 16.488281 290.546875 16.414062 290.394531 16.261719 C 290.242188 16.109375 290.164062 15.914062 290.164062 15.679688 L 290.164062 12.855469 L 290.5 11.160156 L 291.804688 11.65625 L 291.804688 15.679688 C 291.804688 15.914062 291.726562 16.109375 291.566406 16.261719 C 291.40625 16.414062 291.210938 16.488281 290.976562 16.488281 "/>
<path style=" stroke:none;fill-rule:nonzero;fill:rgb(100%,97.647059%,93.725491%);fill-opacity:1;" d="M 298.839844 16.542969 C 297.921875 16.542969 297.09375 16.328125 296.359375 15.898438 C 295.625 15.46875 295.042969 14.882812 294.613281 14.144531 C 294.1875 13.402344 293.972656 12.566406 293.972656 11.636719 C 293.972656 10.707031 294.171875 9.875 294.570312 9.136719 C 294.972656 8.402344 295.519531 7.820312 296.210938 7.390625 C 296.90625 6.960938 297.691406 6.746094 298.570312 6.746094 C 299.300781 6.746094 299.96875 6.898438 300.574219 7.207031 C 301.179688 7.511719 301.683594 7.921875 302.082031 8.441406 L 302.082031 3.5 C 302.082031 3.253906 302.160156 3.054688 302.308594 2.910156 C 302.464844 2.761719 302.65625 2.6875 302.894531 2.6875 C 303.140625 2.6875 303.339844 2.761719 303.492188 2.910156 C 303.644531 3.054688 303.71875 3.253906 303.71875 3.5 L 303.71875 11.671875 C 303.707031 12.589844 303.488281 13.417969 303.058594 14.160156 C 302.632812 14.902344 302.050781 15.484375 301.3125 15.910156 C 300.578125 16.332031 299.753906 16.542969 298.839844 16.542969 M 298.839844 15.09375 C 299.472656 15.09375 300.035156 14.945312 300.53125 14.644531 C 301.023438 14.34375 301.414062 13.933594 301.703125 13.410156 C 301.988281 12.886719 302.132812 12.296875 302.132812 11.636719 C 302.132812 10.976562 301.988281 10.386719 301.703125 9.871094 C 301.414062 9.351562 301.023438 8.945312 300.53125 8.644531 C 300.035156 8.34375 299.472656 8.195312 298.839844 8.195312 C 298.226562 8.195312 297.667969 8.34375 297.160156 8.644531 C 296.65625 8.945312 296.261719 9.351562 295.972656 9.871094 C 295.6875 10.386719 295.542969 10.976562 295.542969 11.636719 C 295.542969 12.296875 295.6875 12.886719 295.972656 13.410156 C 296.261719 13.933594 296.65625 14.34375 297.160156 14.644531 C 297.667969 14.945312 298.226562 15.09375 298.839844 15.09375 "/>
<path style=" stroke:none;fill-rule:nonzero;fill:rgb(100%,97.647059%,93.725491%);fill-opacity:1;" d="M 311.003906 16.542969 C 310.121094 16.542969 309.332031 16.332031 308.640625 15.910156 C 307.945312 15.484375 307.398438 14.902344 307 14.160156 C 306.601562 13.417969 306.402344 12.585938 306.402344 11.65625 C 306.402344 10.714844 306.617188 9.875 307.042969 9.136719 C 307.472656 8.402344 308.054688 7.820312 308.789062 7.390625 C 309.523438 6.960938 310.347656 6.746094 311.265625 6.746094 C 312.195312 6.746094 313.023438 6.960938 313.75 7.390625 C 314.480469 7.820312 315.058594 8.40625 315.488281 9.148438 C 315.917969 9.890625 316.136719 10.726562 316.152344 11.65625 L 315.515625 11.8125 C 315.515625 12.707031 315.316406 13.511719 314.917969 14.230469 C 314.515625 14.949219 313.976562 15.511719 313.300781 15.925781 C 312.628906 16.335938 311.859375 16.542969 311.003906 16.542969 M 311.265625 15.09375 C 311.902344 15.09375 312.464844 14.945312 312.960938 14.644531 C 313.453125 14.34375 313.84375 13.933594 314.132812 13.410156 C 314.421875 12.886719 314.5625 12.300781 314.5625 11.65625 C 314.5625 10.996094 314.421875 10.402344 314.132812 9.878906 C 313.84375 9.355469 313.453125 8.945312 312.960938 8.644531 C 312.464844 8.34375 311.902344 8.195312 311.265625 8.195312 C 310.65625 8.195312 310.097656 8.34375 309.59375 8.644531 C 309.085938 8.945312 308.6875 9.355469 308.402344 9.878906 C 308.113281 10.402344 307.96875 10.996094 307.96875 11.65625 C 307.96875 12.300781 308.113281 12.886719 308.402344 13.410156 C 308.6875 13.933594 309.085938 14.34375 309.59375 14.644531 C 310.097656 14.945312 310.65625 15.09375 311.265625 15.09375 M 315.320312 16.488281 C 315.085938 16.488281 314.890625 16.414062 314.738281 16.261719 C 314.585938 16.109375 314.511719 15.914062 314.511719 15.679688 L 314.511719 12.855469 L 314.84375 11.160156 L 316.152344 11.65625 L 316.152344 15.679688 C 316.152344 15.914062 316.070312 16.109375 315.914062 16.261719 C 315.753906 16.414062 315.554688 16.488281 315.320312 16.488281 "/>
<path style=" stroke:none;fill-rule:nonzero;fill:rgb(100%,97.647059%,93.725491%);fill-opacity:1;" d="M 322.265625 16.542969 C 321.492188 16.542969 320.757812 16.421875 320.066406 16.179688 C 319.371094 15.941406 318.824219 15.609375 318.425781 15.183594 C 318.269531 15.007812 318.207031 14.8125 318.230469 14.601562 C 318.253906 14.390625 318.359375 14.207031 318.546875 14.054688 C 318.746094 13.902344 318.953125 13.835938 319.164062 13.859375 C 319.375 13.882812 319.554688 13.980469 319.695312 14.144531 C 319.929688 14.402344 320.273438 14.625 320.722656 14.8125 C 321.175781 15 321.671875 15.09375 322.214844 15.09375 C 322.976562 15.09375 323.546875 14.96875 323.914062 14.71875 C 324.285156 14.460938 324.476562 14.148438 324.488281 13.773438 C 324.488281 13.382812 324.304688 13.058594 323.941406 12.792969 C 323.578125 12.527344 322.9375 12.316406 322.019531 12.167969 C 320.832031 11.941406 319.96875 11.597656 319.429688 11.125 C 318.890625 10.65625 318.617188 10.082031 318.617188 9.410156 C 318.617188 8.8125 318.785156 8.3125 319.121094 7.921875 C 319.453125 7.527344 319.894531 7.230469 320.441406 7.039062 C 320.988281 6.84375 321.570312 6.746094 322.179688 6.746094 C 322.957031 6.746094 323.636719 6.871094 324.222656 7.128906 C 324.8125 7.378906 325.28125 7.730469 325.632812 8.175781 C 325.789062 8.351562 325.855469 8.535156 325.835938 8.722656 C 325.820312 8.914062 325.722656 9.070312 325.546875 9.203125 C 325.371094 9.308594 325.167969 9.34375 324.9375 9.304688 C 324.710938 9.269531 324.519531 9.171875 324.363281 9.007812 C 324.070312 8.699219 323.746094 8.484375 323.386719 8.363281 C 323.027344 8.238281 322.613281 8.175781 322.144531 8.175781 C 321.582031 8.175781 321.113281 8.28125 320.742188 8.496094 C 320.371094 8.707031 320.1875 8.996094 320.1875 9.359375 C 320.1875 9.59375 320.25 9.800781 320.371094 9.976562 C 320.496094 10.152344 320.726562 10.316406 321.070312 10.460938 C 321.410156 10.609375 321.898438 10.742188 322.53125 10.859375 C 323.414062 11.023438 324.109375 11.242188 324.621094 11.511719 C 325.132812 11.78125 325.5 12.101562 325.722656 12.464844 C 325.945312 12.832031 326.058594 13.242188 326.058594 13.703125 C 326.058594 14.242188 325.910156 14.726562 325.609375 15.15625 C 325.308594 15.585938 324.875 15.925781 324.3125 16.171875 C 323.746094 16.417969 323.066406 16.542969 322.265625 16.542969 "/>
<path style=" stroke:none;fill-rule:nonzero;fill:rgb(100%,97.647059%,93.725491%);fill-opacity:1;" d="M 192.726562 16.453125 C 192.550781 16.453125 192.398438 16.394531 192.277344 16.273438 C 192.160156 16.15625 192.101562 16.007812 192.101562 15.828125 L 192.101562 6.691406 C 192.101562 6.503906 192.160156 6.355469 192.277344 6.238281 C 192.398438 6.125 192.550781 6.066406 192.726562 6.066406 L 198.824219 6.066406 C 199 6.066406 199.144531 6.121094 199.261719 6.230469 C 199.378906 6.34375 199.4375 6.488281 199.4375 6.664062 C 199.4375 6.824219 199.378906 6.960938 199.261719 7.070312 C 199.144531 7.179688 199 7.238281 198.824219 7.238281 L 193.351562 7.238281 L 193.351562 10.640625 L 197.292969 10.640625 C 197.480469 10.640625 197.632812 10.699219 197.742188 10.808594 C 197.851562 10.917969 197.90625 11.058594 197.90625 11.226562 C 197.90625 11.394531 197.851562 11.535156 197.742188 11.644531 C 197.632812 11.753906 197.480469 11.8125 197.292969 11.8125 L 193.351562 11.8125 L 193.351562 15.285156 L 198.824219 15.285156 C 199 15.285156 199.144531 15.339844 199.261719 15.449219 C 199.378906 15.5625 199.4375 15.695312 199.4375 15.855469 C 199.4375 16.03125 199.378906 16.175781 199.261719 16.289062 C 199.144531 16.398438 199 16.453125 198.824219 16.453125 Z M 192.726562 16.453125 "/>
</g>
</svg>